<svg fill="#1C2033" width="96" height="96" viewBox="0 0 64 64" xmlns="http://www.w3.org/2000/svg"><path fill-rule="evenodd" clip-rule="evenodd" d="M11.9933 11.3894C13.9737 12.9984 14.7166 12.8756 18.4354 12.6275L53.4939 10.5224C54.2375 10.5224 53.6192 9.78059 53.3712 9.65734L47.5488 5.44813C46.4331 4.58197 44.9467 3.59004 42.098 3.83818L8.15078 6.31417C6.91272 6.43693 6.66546 7.05596 7.15848 7.55211L11.9933 11.3894ZM14.0982 19.5598V56.4475C14.0982 58.43 15.0889 59.1716 17.3186 59.049L55.8479 56.8195C58.0788 56.6969 58.3273 55.3333 58.3273 53.7229V17.0827C58.3273 15.4749 57.7088 14.6078 56.3432 14.7316L16.0797 17.0827C14.5937 17.2076 14.0982 17.9509 14.0982 19.5598ZM52.1342 21.5386C52.3813 22.6537 52.1342 23.7679 51.0169 23.8933L49.1606 24.2632V51.496C47.5488 52.3623 46.0624 52.8576 44.8239 52.8576C42.8409 52.8576 42.3442 52.2382 40.8589 50.3825L28.7158 31.3193V49.7634L32.5584 50.6305C32.5584 50.6305 32.5584 52.8576 29.4582 52.8576L20.9118 53.3534C20.6635 52.8576 20.9118 51.6208 21.7787 51.373L24.0089 50.7549V26.3682L20.9124 26.12C20.664 25.0049 21.2826 23.3969 23.0183 23.2721L32.1866 22.6541L44.8239 41.9654V24.8821L41.6018 24.5123C41.3546 23.149 42.3442 22.1591 43.5833 22.0363L52.1342 21.5386ZM5.30051 2.97214L40.611 0.371756C44.9473 -0.000138655 46.0629 0.249002 48.7883 2.22872L60.0599 10.151C61.9197 11.5133 62.5396 11.8842 62.5396 13.3693V56.8195C62.5396 59.5427 61.5476 61.1531 58.0794 61.3995L17.0732 63.8758C14.4697 63.9999 13.2307 63.6289 11.8672 61.8948L3.56667 51.1253C2.07947 49.1428 1.46094 47.6597 1.46094 45.9246V7.30309C1.46094 5.07624 2.45324 3.21865 5.30051 2.97214Z"/></svg>